<?xml version="1.0" encoding="UTF-8" standalone="no"?>
<svg
   xmlns:dc="http://purl.org/dc/elements/1.1/"
   xmlns:cc="http://creativecommons.org/ns#"
   xmlns:rdf="http://www.w3.org/1999/02/22-rdf-syntax-ns#"
   xmlns:svg="http://www.w3.org/2000/svg"
   xmlns="http://www.w3.org/2000/svg"
   xmlns:sodipodi="http://sodipodi.sourceforge.net/DTD/sodipodi-0.dtd"
   xmlns:inkscape="http://www.inkscape.org/namespaces/inkscape"
   version="1.1"
   viewBox="0 0 445.3779 175.62991"
   stroke-miterlimit="10"
   id="svg85"
   sodipodi:docname="personajes.svg"
   width="445.3779"
   height="175.62991"
   style="fill:none;stroke:none;stroke-linecap:square;stroke-miterlimit:10"
   inkscape:version="0.92.4 (5da689c313, 2019-01-14)">
  <metadata
     id="metadata91">
    <rdf:RDF>
      <cc:Work
         rdf:about="">
        <dc:format>image/svg+xml</dc:format>
        <dc:type
           rdf:resource="http://purl.org/dc/dcmitype/StillImage" />
        <dc:title></dc:title>
      </cc:Work>
    </rdf:RDF>
  </metadata>
  <defs
     id="defs89" />
  <sodipodi:namedview
     pagecolor="#ffffff"
     bordercolor="#666666"
     borderopacity="1"
     objecttolerance="10"
     gridtolerance="10"
     guidetolerance="10"
     inkscape:pageopacity="0"
     inkscape:pageshadow="2"
     inkscape:window-width="1920"
     inkscape:window-height="1031"
     id="namedview87"
     showgrid="false"
     fit-margin-top="0"
     fit-margin-left="0"
     fit-margin-right="0"
     fit-margin-bottom="0"
     inkscape:zoom="1.4114583"
     inkscape:cx="-19.27988"
     inkscape:cy="-23.245418"
     inkscape:window-x="0"
     inkscape:window-y="0"
     inkscape:window-maximized="1"
     inkscape:current-layer="svg85" />
  <clipPath
     id="ge92ac9dfa5_0_0.0">
    <path
       d="M 0,0 H 960 V 540 H 0 Z"
       id="path2"
       inkscape:connector-curvature="0"
       style="clip-rule:nonzero" />
  </clipPath>
  <g
     clip-path="url(#ge92ac9dfa5_0_0.0)"
     id="g83"
     transform="translate(-511.32416,-71.124672)">
    <path
       d="m 655.08136,75.782234 v 0 c 0,-2.296158 1.86139,-4.157562 4.15759,-4.157562 h 93.88959 c 1.10266,0 2.16016,0.438026 2.93982,1.21772 0.77973,0.779693 1.21771,1.837188 1.21771,2.939842 v 16.629753 c 0,2.296165 -1.86138,4.15757 -4.15753,4.15757 h -93.88959 c -2.2962,0 -4.15759,-1.861404 -4.15759,-4.15757 z"
       id="path7"
       inkscape:connector-curvature="0"
       style="fill:#eeeeee;fill-rule:evenodd" />
    <path
       d="m 655.08136,75.782234 v 0 c 0,-2.296158 1.86139,-4.157562 4.15759,-4.157562 h 93.88959 c 1.10266,0 2.16016,0.438026 2.93982,1.21772 0.77973,0.779693 1.21771,1.837188 1.21771,2.939842 v 16.629753 c 0,2.296165 -1.86138,4.15757 -4.15753,4.15757 h -93.88959 c -2.2962,0 -4.15759,-1.861404 -4.15759,-4.15757 z"
       id="path9"
       inkscape:connector-curvature="0"
       style="fill-rule:evenodd;stroke:#595959;stroke-width:1;stroke-linecap:butt;stroke-linejoin:round" />
    <path
       d="m 677.20715,88.89711 v -9.546875 h 3.59375 q 0.95312,0 1.45312,0.09375 0.70313,0.125 1.17188,0.453125 0.48437,0.328125 0.76562,0.921875 0.29688,0.59375 0.29688,1.296875 0,1.21875 -0.78125,2.0625 -0.76563,0.84375 -2.79688,0.84375 h -2.4375 v 3.875 z m 1.26562,-5 h 2.45313 q 1.23437,0 1.75,-0.453125 0.51562,-0.46875 0.51562,-1.28125 0,-0.609375 -0.3125,-1.03125 -0.29687,-0.421875 -0.79687,-0.5625 -0.3125,-0.09375 -1.17188,-0.09375 h -2.4375 z m 12.20228,2.78125 1.20312,0.140625 q -0.28125,1.0625 -1.0625,1.65625 -0.76562,0.578125 -1.96875,0.578125 -1.51562,0 -2.40625,-0.9375 -0.89062,-0.9375 -0.89062,-2.609375 0,-1.75 0.89062,-2.703125 0.90625,-0.96875 2.34375,-0.96875 1.39063,0 2.26563,0.9375 0.875,0.9375 0.875,2.65625 0,0.109375 0,0.3125 h -5.15625 q 0.0625,1.140625 0.64062,1.75 0.57813,0.59375 1.4375,0.59375 0.65625,0 1.10938,-0.328125 0.45312,-0.34375 0.71875,-1.078125 z m -3.84375,-1.90625 h 3.85937 q -0.0781,-0.859375 -0.4375,-1.296875 -0.5625,-0.6875 -1.45312,-0.6875 -0.8125,0 -1.35938,0.546875 -0.54687,0.53125 -0.60937,1.4375 z m 6.50622,4.125 v -6.90625 h 1.0625 v 1.046875 q 0.40625,-0.734375 0.73438,-0.96875 0.34375,-0.234375 0.76562,-0.234375 0.59375,0 1.20313,0.375 l -0.40625,1.078125 q -0.4375,-0.25 -0.85938,-0.25 -0.39062,0 -0.70312,0.234375 -0.29688,0.234375 -0.42188,0.640625 -0.20312,0.625 -0.20312,1.359375 v 3.625 z m 3.98523,-2.0625 1.15625,-0.1875 q 0.10938,0.703125 0.54688,1.078125 0.45312,0.359375 1.25,0.359375 0.8125,0 1.20312,-0.328125 0.39063,-0.328125 0.39063,-0.765625 0,-0.390625 -0.35938,-0.625 -0.23437,-0.15625 -1.1875,-0.390625 -1.29687,-0.328125 -1.79687,-0.5625 -0.48438,-0.25 -0.75,-0.65625 -0.25,-0.421875 -0.25,-0.9375 0,-0.453125 0.20312,-0.84375 0.21875,-0.40625 0.57813,-0.671875 0.28125,-0.1875 0.75,-0.328125 0.46875,-0.140625 1.01562,-0.140625 0.8125,0 1.42188,0.234375 0.60937,0.234375 0.90625,0.640625 0.29687,0.390625 0.40625,1.0625 l -1.14063,0.15625 q -0.0781,-0.53125 -0.45312,-0.828125 -0.375,-0.3125 -1.0625,-0.3125 -0.8125,0 -1.15625,0.265625 -0.34375,0.265625 -0.34375,0.625 0,0.234375 0.14062,0.421875 0.15625,0.1875 0.45313,0.3125 0.17187,0.0625 1.03125,0.296875 1.25,0.328125 1.73437,0.546875 0.5,0.203125 0.78125,0.609375 0.28125,0.40625 0.28125,1 0,0.59375 -0.34375,1.109375 -0.34375,0.515625 -1,0.796875 -0.64062,0.28125 -1.45312,0.28125 -1.34375,0 -2.04688,-0.5625 -0.70312,-0.5625 -0.90625,-1.65625 z m 6.69531,-1.390625 q 0,-1.921875 1.07813,-2.84375 0.89062,-0.765625 2.17187,-0.765625 1.42188,0 2.32813,0.9375 0.90625,0.921875 0.90625,2.578125 0,1.328125 -0.40625,2.09375 -0.39063,0.765625 -1.15625,1.1875 -0.76563,0.421875 -1.67188,0.421875 -1.45312,0 -2.35937,-0.921875 -0.89063,-0.9375 -0.89063,-2.6875 z m 1.20313,0 q 0,1.328125 0.57812,1.984375 0.59375,0.65625 1.46875,0.65625 0.875,0 1.45313,-0.65625 0.57812,-0.671875 0.57812,-2.03125 0,-1.28125 -0.59375,-1.9375 -0.57812,-0.65625 -1.4375,-0.65625 -0.875,0 -1.46875,0.65625 -0.57812,0.65625 -0.57812,1.984375 z m 6.64685,3.453125 v -6.90625 h 1.0625 v 0.984375 q 0.75,-1.140625 2.1875,-1.140625 0.625,0 1.15625,0.21875 0.53125,0.21875 0.78125,0.59375 0.26562,0.359375 0.375,0.859375 0.0625,0.328125 0.0625,1.140625 v 4.25 h -1.17188 v -4.203125 q 0,-0.71875 -0.14062,-1.0625 -0.14063,-0.359375 -0.48438,-0.5625 -0.34375,-0.21875 -0.8125,-0.21875 -0.75,0 -1.29687,0.46875 -0.54688,0.46875 -0.54688,1.796875 v 3.78125 z m 11.9281,-0.859375 q -0.65625,0.5625 -1.26563,0.796875 -0.59375,0.21875 -1.28125,0.21875 -1.14062,0 -1.75,-0.546875 -0.60937,-0.5625 -0.60937,-1.4375 0,-0.5 0.21875,-0.921875 0.23437,-0.421875 0.60937,-0.671875 0.375,-0.25 0.84375,-0.390625 0.34375,-0.07813 1.04688,-0.171875 1.42187,-0.171875 2.09375,-0.40625 0,-0.234375 0,-0.296875 0,-0.71875 -0.32813,-1.015625 -0.45312,-0.390625 -1.34375,-0.390625 -0.8125,0 -1.21875,0.296875 -0.39062,0.28125 -0.57812,1.015625 l -1.14063,-0.15625 q 0.15625,-0.734375 0.51563,-1.1875 0.35937,-0.453125 1.03125,-0.6875 0.67187,-0.25 1.5625,-0.25 0.89062,0 1.4375,0.203125 0.5625,0.203125 0.8125,0.53125 0.26562,0.3125 0.375,0.796875 0.0469,0.296875 0.0469,1.078125 v 1.5625 q 0,1.625 0.0781,2.0625 0.0781,0.4375 0.29687,0.828125 h -1.21875 q -0.1875,-0.359375 -0.23437,-0.859375 z m -0.0937,-2.609375 q -0.64063,0.265625 -1.92188,0.4375 -0.71875,0.109375 -1.01562,0.25 -0.29688,0.125 -0.46875,0.375 -0.15625,0.25 -0.15625,0.546875 0,0.46875 0.34375,0.78125 0.35937,0.3125 1.04687,0.3125 0.67188,0 1.20313,-0.296875 0.53125,-0.296875 0.78125,-0.8125 0.1875,-0.390625 0.1875,-1.171875 z m 2.9906,-4.71875 v -1.359375 h 1.17188 v 1.359375 z m -1.48437,10.875 0.21875,-1 q 0.35937,0.09375 0.54687,0.09375 0.35938,0 0.53125,-0.25 0.1875,-0.234375 0.1875,-1.1875 v -7.25 h 1.17188 v 7.28125 q 0,1.28125 -0.32813,1.78125 -0.4375,0.65625 -1.40625,0.65625 -0.48437,0 -0.92187,-0.125 z m 9.17987,-4.90625 1.20312,0.140625 q -0.28125,1.0625 -1.0625,1.65625 -0.76562,0.578125 -1.96875,0.578125 -1.51562,0 -2.40625,-0.9375 -0.89062,-0.9375 -0.89062,-2.609375 0,-1.75 0.89062,-2.703125 0.90625,-0.96875 2.34375,-0.96875 1.39063,0 2.26563,0.9375 0.875,0.9375 0.875,2.65625 0,0.109375 0,0.3125 h -5.15625 q 0.0625,1.140625 0.64062,1.75 0.57813,0.59375 1.4375,0.59375 0.65625,0 1.10938,-0.328125 0.45312,-0.34375 0.71875,-1.078125 z m -3.84375,-1.90625 h 3.85937 q -0.0781,-0.859375 -0.4375,-1.296875 -0.5625,-0.6875 -1.45312,-0.6875 -0.8125,0 -1.35938,0.546875 -0.54687,0.53125 -0.60937,1.4375 z"
       id="path11"
       inkscape:connector-curvature="0"
       style="fill:#000000;fill-rule:nonzero" />
    <path
       d="m 511.82416,134.31627 v 0 c 0,-6.88834 22.87927,-12.47243 51.10236,-12.47243 v 0 c 28.22302,0 51.10235,5.58409 51.10235,12.47243 v 0 c 0,6.88834 -22.87933,12.47244 -51.10235,12.47244 v 0 c -28.22309,0 -51.10236,-5.5841 -51.10236,-12.47244 z"
       id="path13"
       inkscape:connector-curvature="0"
       style="fill:#eeeeee;fill-rule:evenodd" />
    <path
       d="m 511.82416,134.31627 v 0 c 0,-6.88834 22.87927,-12.47243 51.10236,-12.47243 v 0 c 28.22302,0 51.10235,5.58409 51.10235,12.47243 v 0 c 0,6.88834 -22.87933,12.47244 -51.10235,12.47244 v 0 c -28.22309,0 -51.10236,-5.5841 -51.10236,-12.47244 z"
       id="path15"
       inkscape:connector-curvature="0"
       style="fill-rule:evenodd;stroke:#595959;stroke-width:1;stroke-linecap:butt;stroke-linejoin:round" />
    <path
       d="m 540.2404,139.11627 v -9.54688 h 1.29688 l 5.01562,7.5 v -7.5 h 1.20313 v 9.54688 h -1.29688 l -5.01562,-7.5 v 7.5 z m 9.04706,-3.45313 q 0,-1.92187 1.07812,-2.84375 0.89063,-0.76562 2.17188,-0.76562 1.42187,0 2.32812,0.9375 0.90625,0.92187 0.90625,2.57812 0,1.32813 -0.40625,2.09375 -0.39062,0.76563 -1.15625,1.1875 -0.76562,0.42188 -1.67187,0.42188 -1.45313,0 -2.35938,-0.92188 -0.89062,-0.9375 -0.89062,-2.6875 z m 1.20312,0 q 0,1.32813 0.57813,1.98438 0.59375,0.65625 1.46875,0.65625 0.875,0 1.45312,-0.65625 0.57813,-0.67188 0.57813,-2.03125 0,-1.28125 -0.59375,-1.9375 -0.57813,-0.65625 -1.4375,-0.65625 -0.875,0 -1.46875,0.65625 -0.57813,0.65625 -0.57813,1.98437 z m 6.64685,3.45313 v -6.90625 h 1.04688 v 0.96875 q 0.32812,-0.51563 0.85937,-0.8125 0.54688,-0.3125 1.23438,-0.3125 0.78125,0 1.26562,0.3125 0.48438,0.3125 0.6875,0.89062 0.82813,-1.20312 2.14063,-1.20312 1.03125,0 1.57812,0.57812 0.5625,0.5625 0.5625,1.73438 v 4.75 h -1.17187 v -4.35938 q 0,-0.70312 -0.125,-1 -0.10938,-0.3125 -0.40625,-0.5 -0.29688,-0.1875 -0.70313,-0.1875 -0.71875,0 -1.20312,0.48438 -0.48438,0.48437 -0.48438,1.54687 v 4.01563 h -1.17187 v -4.48438 q 0,-0.78125 -0.29688,-1.17187 -0.28125,-0.39063 -0.92187,-0.39063 -0.5,0 -0.92188,0.26563 -0.42187,0.25 -0.60937,0.75 -0.1875,0.5 -0.1875,1.45312 v 3.57813 z m 12.18055,0 h -1.07813 v -9.54688 h 1.17188 v 3.40625 q 0.73437,-0.92187 1.89062,-0.92187 0.64063,0 1.20313,0.26562 0.57812,0.25 0.9375,0.71875 0.375,0.45313 0.57812,1.10938 0.20313,0.65625 0.20313,1.40625 0,1.78125 -0.875,2.75 -0.875,0.96875 -2.10938,0.96875 -1.21875,0 -1.92187,-1.01563 z m 0,-3.5 q 0,1.23437 0.32812,1.78125 0.5625,0.90625 1.5,0.90625 0.76563,0 1.32813,-0.65625 0.5625,-0.67188 0.5625,-2 0,-1.34375 -0.54688,-1.98438 -0.53125,-0.65625 -1.29687,-0.65625 -0.76563,0 -1.32813,0.67188 -0.54687,0.67187 -0.54687,1.9375 z m 6.31872,3.5 v -6.90625 h 1.0625 v 1.04687 q 0.40625,-0.73437 0.73438,-0.96875 0.34375,-0.23437 0.76562,-0.23437 0.59375,0 1.20313,0.375 l -0.40625,1.07812 q -0.4375,-0.25 -0.85938,-0.25 -0.39062,0 -0.70312,0.23438 -0.29688,0.23437 -0.42188,0.64062 -0.20312,0.625 -0.20312,1.35938 v 3.625 z m 9.18836,-2.21875 1.20312,0.14062 q -0.28125,1.0625 -1.0625,1.65625 -0.76562,0.57813 -1.96875,0.57813 -1.51562,0 -2.40625,-0.9375 -0.89062,-0.9375 -0.89062,-2.60938 0,-1.75 0.89062,-2.70312 0.90625,-0.96875 2.34375,-0.96875 1.39063,0 2.26563,0.9375 0.875,0.9375 0.875,2.65625 0,0.10937 0,0.3125 h -5.15625 q 0.0625,1.14062 0.64062,1.75 0.57813,0.59375 1.4375,0.59375 0.65625,0 1.10938,-0.32813 0.45312,-0.34375 0.71875,-1.07812 z m -3.84375,-1.90625 h 3.85937 q -0.0781,-0.85938 -0.4375,-1.29688 -0.5625,-0.6875 -1.45312,-0.6875 -0.8125,0 -1.35938,0.54688 -0.54687,0.53125 -0.60937,1.4375 z"
       id="path17"
       inkscape:connector-curvature="0"
       style="fill:#000000;fill-rule:nonzero" />
    <path
       d="m 653.81885,154.72704 v 0 c 0,-6.88834 19.9956,-12.47244 44.66144,-12.47244 v 0 c 24.66583,0 44.66144,5.5841 44.66144,12.47244 v 0 c 0,6.88834 -19.99561,12.47244 -44.66144,12.47244 v 0 c -24.66584,0 -44.66144,-5.5841 -44.66144,-12.47244 z"
       id="path19"
       inkscape:connector-curvature="0"
       style="fill:#eeeeee;fill-rule:evenodd" />
    <path
       d="m 653.81885,154.72704 v 0 c 0,-6.88834 19.9956,-12.47244 44.66144,-12.47244 v 0 c 24.66583,0 44.66144,5.5841 44.66144,12.47244 v 0 c 0,6.88834 -19.99561,12.47244 -44.66144,12.47244 v 0 c -24.66584,0 -44.66144,-5.5841 -44.66144,-12.47244 z"
       id="path21"
       inkscape:connector-curvature="0"
       style="fill-rule:evenodd;stroke:#595959;stroke-width:1;stroke-linecap:butt;stroke-linejoin:round" />
    <path
       d="m 683.96356,159.52704 v -9.54688 h 6.90625 v 1.125 h -5.64062 v 2.92188 h 5.28125 v 1.125 h -5.28125 v 3.25 h 5.85937 v 1.125 z m 13.20227,0 v -0.875 q -0.65625,1.03125 -1.9375,1.03125 -0.8125,0 -1.51562,-0.45313 -0.6875,-0.45312 -1.07813,-1.26562 -0.375,-0.82813 -0.375,-1.89063 0,-1.03125 0.34375,-1.875 0.34375,-0.84375 1.03125,-1.28125 0.70313,-0.45312 1.54688,-0.45312 0.625,0 1.10937,0.26562 0.5,0.25 0.79688,0.67188 v -3.42188 h 1.17187 v 9.54688 z m -3.70312,-3.45313 q 0,1.32813 0.5625,1.98438 0.5625,0.65625 1.32812,0.65625 0.76563,0 1.29688,-0.625 0.53125,-0.625 0.53125,-1.90625 0,-1.42188 -0.54688,-2.07813 -0.54687,-0.67187 -1.34375,-0.67187 -0.78125,0 -1.3125,0.64062 -0.51562,0.625 -0.51562,2 z m 11.14685,2.59375 q -0.65625,0.5625 -1.26563,0.79688 -0.59375,0.21875 -1.28125,0.21875 -1.14062,0 -1.75,-0.54688 -0.60937,-0.5625 -0.60937,-1.4375 0,-0.5 0.21875,-0.92187 0.23437,-0.42188 0.60937,-0.67188 0.375,-0.25 0.84375,-0.39062 0.34375,-0.0781 1.04688,-0.17188 1.42187,-0.17187 2.09375,-0.40625 0,-0.23437 0,-0.29687 0,-0.71875 -0.32813,-1.01563 -0.45312,-0.39062 -1.34375,-0.39062 -0.8125,0 -1.21875,0.29687 -0.39062,0.28125 -0.57812,1.01563 l -1.14063,-0.15625 q 0.15625,-0.73438 0.51563,-1.1875 0.35937,-0.45313 1.03125,-0.6875 0.67187,-0.25 1.5625,-0.25 0.89062,0 1.4375,0.20312 0.5625,0.20313 0.8125,0.53125 0.26562,0.3125 0.375,0.79688 0.0469,0.29687 0.0469,1.07812 v 1.5625 q 0,1.625 0.0781,2.0625 0.0781,0.4375 0.29687,0.82813 h -1.21875 q -0.1875,-0.35938 -0.23437,-0.85938 z m -0.0937,-2.60937 q -0.64063,0.26562 -1.92188,0.4375 -0.71875,0.10937 -1.01562,0.25 -0.29688,0.125 -0.46875,0.375 -0.15625,0.25 -0.15625,0.54687 0,0.46875 0.34375,0.78125 0.35937,0.3125 1.04687,0.3125 0.67188,0 1.20313,-0.29687 0.53125,-0.29688 0.78125,-0.8125 0.1875,-0.39063 0.1875,-1.17188 z m 7.47497,3.46875 v -0.875 q -0.65625,1.03125 -1.9375,1.03125 -0.8125,0 -1.51562,-0.45313 -0.6875,-0.45312 -1.07813,-1.26562 -0.375,-0.82813 -0.375,-1.89063 0,-1.03125 0.34375,-1.875 0.34375,-0.84375 1.03125,-1.28125 0.70313,-0.45312 1.54688,-0.45312 0.625,0 1.10937,0.26562 0.5,0.25 0.79688,0.67188 v -3.42188 h 1.17187 v 9.54688 z m -3.70312,-3.45313 q 0,1.32813 0.5625,1.98438 0.5625,0.65625 1.32812,0.65625 0.76563,0 1.29688,-0.625 0.53125,-0.625 0.53125,-1.90625 0,-1.42188 -0.54688,-2.07813 -0.54687,-0.67187 -1.34375,-0.67187 -0.78125,0 -1.3125,0.64062 -0.51562,0.625 -0.51562,2 z"
       id="path23"
       inkscape:connector-curvature="0"
       style="fill:#000000;fill-rule:nonzero" />
    <path
       d="m 743.1417,233.78215 v 0 c 0,-6.88834 19.02264,-12.47244 42.48822,-12.47244 v 0 c 23.46558,0 42.48816,5.5841 42.48816,12.47244 v 0 c 0,6.88834 -19.02258,12.47244 -42.48816,12.47244 v 0 c -23.46558,0 -42.48822,-5.5841 -42.48822,-12.47244 z"
       id="path25"
       inkscape:connector-curvature="0"
       style="fill:#eeeeee;fill-rule:evenodd" />
    <path
       d="m 743.1417,233.78215 v 0 c 0,-6.88834 19.02264,-12.47244 42.48822,-12.47244 v 0 c 23.46558,0 42.48816,5.5841 42.48816,12.47244 v 0 c 0,6.88834 -19.02258,12.47244 -42.48816,12.47244 v 0 c -23.46558,0 -42.48822,-5.5841 -42.48822,-12.47244 z"
       id="path27"
       inkscape:connector-curvature="0"
       style="fill-rule:evenodd;stroke:#595959;stroke-width:1;stroke-linecap:butt;stroke-linejoin:round" />
    <path
       d="m 775.30756,235.2384 1.26562,0.3125 q -0.39062,1.5625 -1.42187,2.375 -1.03125,0.8125 -2.53125,0.8125 -1.53125,0 -2.5,-0.625 -0.96875,-0.625 -1.48438,-1.8125 -0.5,-1.1875 -0.5,-2.5625 0,-1.48437 0.5625,-2.59375 0.57813,-1.10937 1.625,-1.6875 1.0625,-0.57812 2.32813,-0.57812 1.42187,0 2.39062,0.73437 0.98438,0.71875 1.375,2.04688 l -1.25,0.29687 q -0.32812,-1.04687 -0.96875,-1.51562 -0.625,-0.48438 -1.57812,-0.48438 -1.09375,0 -1.84375,0.53125 -0.73438,0.53125 -1.03125,1.42188 -0.29688,0.875 -0.29688,1.82812 0,1.21875 0.34375,2.125 0.35938,0.90625 1.10938,1.35938 0.75,0.4375 1.625,0.4375 1.0625,0 1.79687,-0.60938 0.73438,-0.60937 0.98438,-1.8125 z m 7.18768,2.48438 q -0.65625,0.5625 -1.26562,0.79687 -0.59375,0.21875 -1.28125,0.21875 -1.14063,0 -1.75,-0.54687 -0.60938,-0.5625 -0.60938,-1.4375 0,-0.5 0.21875,-0.92188 0.23438,-0.42187 0.60938,-0.67187 0.375,-0.25 0.84375,-0.39063 0.34375,-0.0781 1.04687,-0.17187 1.42188,-0.17188 2.09375,-0.40625 0,-0.23438 0,-0.29688 0,-0.71875 -0.32812,-1.01562 -0.45313,-0.39063 -1.34375,-0.39063 -0.8125,0 -1.21875,0.29688 -0.39063,0.28125 -0.57813,1.01562 l -1.14062,-0.15625 q 0.15625,-0.73437 0.51562,-1.1875 0.35938,-0.45312 1.03125,-0.6875 0.67188,-0.25 1.5625,-0.25 0.89063,0 1.4375,0.20313 0.5625,0.20312 0.8125,0.53125 0.26563,0.3125 0.375,0.79687 0.0469,0.29688 0.0469,1.07813 v 1.5625 q 0,1.625 0.0781,2.0625 0.0781,0.4375 0.29688,0.82812 h -1.21875 q -0.1875,-0.35937 -0.23438,-0.85937 z m -0.0937,-2.60938 q -0.64062,0.26563 -1.92187,0.4375 -0.71875,0.10938 -1.01563,0.25 -0.29687,0.125 -0.46875,0.375 -0.15625,0.25 -0.15625,0.54688 0,0.46875 0.34375,0.78125 0.35938,0.3125 1.04688,0.3125 0.67187,0 1.20312,-0.29688 0.53125,-0.29687 0.78125,-0.8125 0.1875,-0.39062 0.1875,-1.17187 z m 2.97498,3.46875 v -6.90625 h 1.0625 v 1.04688 q 0.40625,-0.73438 0.73437,-0.96875 0.34375,-0.23438 0.76563,-0.23438 0.59375,0 1.20312,0.375 l -0.40625,1.07813 q -0.4375,-0.25 -0.85937,-0.25 -0.39063,0 -0.70313,0.23437 -0.29687,0.23438 -0.42187,0.64063 -0.20313,0.625 -0.20313,1.35937 v 3.625 z m 4.23523,0.57813 1.14062,0.15625 q 0.0781,0.53125 0.40625,0.78125 0.4375,0.3125 1.1875,0.3125 0.8125,0 1.25,-0.32813 0.45313,-0.3125 0.60938,-0.90625 0.0937,-0.35937 0.0781,-1.5 -0.76562,0.90625 -1.90625,0.90625 -1.4375,0 -2.21875,-1.03125 -0.78125,-1.03125 -0.78125,-2.46875 0,-0.98437 0.35938,-1.8125 0.35937,-0.84375 1.03125,-1.29687 0.6875,-0.45313 1.60937,-0.45313 1.21875,0 2.01563,0.98438 v -0.82813 h 1.07812 v 5.96875 q 0,1.60938 -0.32812,2.28125 -0.32813,0.6875 -1.04688,1.07813 -0.70312,0.39062 -1.75,0.39062 -1.23437,0 -2,-0.5625 -0.75,-0.5625 -0.73437,-1.67187 z m 0.98437,-4.15625 q 0,1.35937 0.53125,1.98437 0.54688,0.625 1.35938,0.625 0.79687,0 1.34375,-0.625 0.54687,-0.625 0.54687,-1.95312 0,-1.26563 -0.5625,-1.90625 -0.5625,-0.64063 -1.35937,-0.64063 -0.76563,0 -1.3125,0.64063 -0.54688,0.625 -0.54688,1.875 z m 6.20935,0.125 q 0,-1.92188 1.07813,-2.84375 0.89062,-0.76563 2.17187,-0.76563 1.42188,0 2.32813,0.9375 0.90625,0.92188 0.90625,2.57813 0,1.32812 -0.40625,2.09375 -0.39063,0.76562 -1.15625,1.1875 -0.76563,0.42187 -1.67188,0.42187 -1.45312,0 -2.35937,-0.92187 -0.89063,-0.9375 -0.89063,-2.6875 z m 1.20313,0 q 0,1.32812 0.57812,1.98437 0.59375,0.65625 1.46875,0.65625 0.875,0 1.45313,-0.65625 0.57812,-0.67187 0.57812,-2.03125 0,-1.28125 -0.59375,-1.9375 -0.57812,-0.65625 -1.4375,-0.65625 -0.875,0 -1.46875,0.65625 -0.57812,0.65625 -0.57812,1.98438 z"
       id="path29"
       inkscape:connector-curvature="0"
       style="fill:#000000;fill-rule:nonzero" />
    <path
       d="m 829.6982,129.51453 v 0 c 0,-2.29617 1.86139,-4.15757 4.15753,-4.15757 h 81.00775 c 1.1026,0 2.1601,0.43803 2.93982,1.21772 0.77966,0.77969 1.21771,1.83719 1.21771,2.93985 v 16.62974 c 0,2.29616 -1.86139,4.15757 -4.15753,4.15757 h -81.00775 c -2.29614,0 -4.15753,-1.86141 -4.15753,-4.15757 z"
       id="path31"
       inkscape:connector-curvature="0"
       style="fill:#eeeeee;fill-rule:evenodd" />
    <path
       d="m 829.6982,129.51453 v 0 c 0,-2.29617 1.86139,-4.15757 4.15753,-4.15757 h 81.00775 c 1.1026,0 2.1601,0.43803 2.93982,1.21772 0.77966,0.77969 1.21771,1.83719 1.21771,2.93985 v 16.62974 c 0,2.29616 -1.86139,4.15757 -4.15753,4.15757 h -81.00775 c -2.29614,0 -4.15753,-1.86141 -4.15753,-4.15757 z"
       id="path33"
       inkscape:connector-curvature="0"
       style="fill-rule:evenodd;stroke:#595959;stroke-width:1;stroke-linecap:butt;stroke-linejoin:round" />
    <path
       d="m 852.1327,142.6294 v -8.42188 h -3.14063 v -1.125 h 7.5625 v 1.125 h -3.15625 v 8.42188 z m 5.05286,0 v -6.90625 h 1.0625 v 1.04687 q 0.40625,-0.73437 0.73437,-0.96875 0.34375,-0.23437 0.76563,-0.23437 0.59375,0 1.20312,0.375 l -0.40625,1.07812 q -0.4375,-0.25 -0.85937,-0.25 -0.39063,0 -0.70313,0.23438 -0.29687,0.23437 -0.42187,0.64062 -0.20313,0.625 -0.20313,1.35938 v 3.625 z m 8.9696,-0.85938 q -0.65625,0.5625 -1.26562,0.79688 -0.59375,0.21875 -1.28125,0.21875 -1.14063,0 -1.75,-0.54688 -0.60938,-0.5625 -0.60938,-1.4375 0,-0.5 0.21875,-0.92187 0.23438,-0.42188 0.60938,-0.67188 0.375,-0.25 0.84375,-0.39062 0.34375,-0.0781 1.04687,-0.17188 1.42188,-0.17187 2.09375,-0.40625 0,-0.23437 0,-0.29687 0,-0.71875 -0.32812,-1.01563 -0.45313,-0.39062 -1.34375,-0.39062 -0.8125,0 -1.21875,0.29687 -0.39063,0.28125 -0.57813,1.01563 l -1.14062,-0.15625 q 0.15625,-0.73438 0.51562,-1.1875 0.35938,-0.45313 1.03125,-0.6875 0.67188,-0.25 1.5625,-0.25 0.89063,0 1.4375,0.20312 0.5625,0.20313 0.8125,0.53125 0.26563,0.3125 0.375,0.79688 0.0469,0.29687 0.0469,1.07812 v 1.5625 q 0,1.625 0.0781,2.0625 0.0781,0.4375 0.29688,0.82813 h -1.21875 q -0.1875,-0.35938 -0.23438,-0.85938 z m -0.0937,-2.60937 q -0.64062,0.26562 -1.92187,0.4375 -0.71875,0.10937 -1.01563,0.25 -0.29687,0.125 -0.46875,0.375 -0.15625,0.25 -0.15625,0.54687 0,0.46875 0.34375,0.78125 0.35938,0.3125 1.04688,0.3125 0.67187,0 1.20312,-0.29687 0.53125,-0.29688 0.78125,-0.8125 0.1875,-0.39063 0.1875,-1.17188 z m 4.06873,3.46875 h -1.07813 v -9.54688 h 1.17188 v 3.40625 q 0.73437,-0.92187 1.89062,-0.92187 0.64063,0 1.20313,0.26562 0.57812,0.25 0.9375,0.71875 0.375,0.45313 0.57812,1.10938 0.20313,0.65625 0.20313,1.40625 0,1.78125 -0.875,2.75 -0.875,0.96875 -2.10938,0.96875 -1.21875,0 -1.92187,-1.01563 z m 0,-3.5 q 0,1.23437 0.32812,1.78125 0.5625,0.90625 1.5,0.90625 0.76563,0 1.32813,-0.65625 0.5625,-0.67188 0.5625,-2 0,-1.34375 -0.54688,-1.98438 -0.53125,-0.65625 -1.29687,-0.65625 -0.76563,0 -1.32813,0.67188 -0.54687,0.67187 -0.54687,1.9375 z m 10.84997,2.64062 q -0.65625,0.5625 -1.26562,0.79688 -0.59375,0.21875 -1.28125,0.21875 -1.14063,0 -1.75,-0.54688 -0.60938,-0.5625 -0.60938,-1.4375 0,-0.5 0.21875,-0.92187 0.23438,-0.42188 0.60938,-0.67188 0.375,-0.25 0.84375,-0.39062 0.34375,-0.0781 1.04687,-0.17188 1.42188,-0.17187 2.09375,-0.40625 0,-0.23437 0,-0.29687 0,-0.71875 -0.32812,-1.01563 -0.45313,-0.39062 -1.34375,-0.39062 -0.8125,0 -1.21875,0.29687 -0.39063,0.28125 -0.57813,1.01563 l -1.14062,-0.15625 q 0.15625,-0.73438 0.51562,-1.1875 0.35938,-0.45313 1.03125,-0.6875 0.67188,-0.25 1.5625,-0.25 0.89063,0 1.4375,0.20312 0.5625,0.20313 0.8125,0.53125 0.26563,0.3125 0.375,0.79688 0.0469,0.29687 0.0469,1.07812 v 1.5625 q 0,1.625 0.0781,2.0625 0.0781,0.4375 0.29688,0.82813 h -1.21875 q -0.1875,-0.35938 -0.23438,-0.85938 z m -0.0937,-2.60937 q -0.64062,0.26562 -1.92187,0.4375 -0.71875,0.10937 -1.01563,0.25 -0.29687,0.125 -0.46875,0.375 -0.15625,0.25 -0.15625,0.54687 0,0.46875 0.34375,0.78125 0.35938,0.3125 1.04688,0.3125 0.67187,0 1.20312,-0.29687 0.53125,-0.29688 0.78125,-0.8125 0.1875,-0.39063 0.1875,-1.17188 z m 2.9906,-4.71875 v -1.35938 h 1.17188 v 1.35938 z m -1.48437,10.875 0.21875,-1 q 0.35937,0.0937 0.54687,0.0937 0.35938,0 0.53125,-0.25 0.1875,-0.23438 0.1875,-1.1875 v -7.25 h 1.17188 v 7.28125 q 0,1.28125 -0.32813,1.78125 -0.4375,0.65625 -1.40625,0.65625 -0.48437,0 -0.92187,-0.125 z m 4.00793,-6.14063 q 0,-1.92187 1.07813,-2.84375 0.89062,-0.76562 2.17187,-0.76562 1.42188,0 2.32813,0.9375 0.90625,0.92187 0.90625,2.57812 0,1.32813 -0.40625,2.09375 -0.39063,0.76563 -1.15625,1.1875 -0.76563,0.42188 -1.67188,0.42188 -1.45312,0 -2.35937,-0.92188 -0.89063,-0.9375 -0.89063,-2.6875 z m 1.20313,0 q 0,1.32813 0.57812,1.98438 0.59375,0.65625 1.46875,0.65625 0.875,0 1.45313,-0.65625 0.57812,-0.67188 0.57812,-2.03125 0,-1.28125 -0.59375,-1.9375 -0.57812,-0.65625 -1.4375,-0.65625 -0.875,0 -1.46875,0.65625 -0.57812,0.65625 -0.57812,1.98437 z m 6.1781,1.39063 1.15625,-0.1875 q 0.10937,0.70312 0.54687,1.07812 0.45313,0.35938 1.25,0.35938 0.8125,0 1.20313,-0.32813 0.39062,-0.32812 0.39062,-0.76562 0,-0.39063 -0.35937,-0.625 -0.23438,-0.15625 -1.1875,-0.39063 -1.29688,-0.32812 -1.79688,-0.5625 -0.48437,-0.25 -0.75,-0.65625 -0.25,-0.42187 -0.25,-0.9375 0,-0.45312 0.20313,-0.84375 0.21875,-0.40625 0.57812,-0.67187 0.28125,-0.1875 0.75,-0.32813 0.46875,-0.14062 1.01563,-0.14062 0.8125,0 1.42187,0.23437 0.60938,0.23438 0.90625,0.64063 0.29688,0.39062 0.40625,1.0625 l -1.14062,0.15625 q -0.0781,-0.53125 -0.45313,-0.82813 -0.375,-0.3125 -1.0625,-0.3125 -0.8125,0 -1.15625,0.26563 -0.34375,0.26562 -0.34375,0.625 0,0.23437 0.14063,0.42187 0.15625,0.1875 0.45312,0.3125 0.17188,0.0625 1.03125,0.29688 1.25,0.32812 1.73438,0.54687 0.5,0.20313 0.78125,0.60938 0.28125,0.40625 0.28125,1 0,0.59375 -0.34375,1.10937 -0.34375,0.51563 -1,0.79688 -0.64063,0.28125 -1.45313,0.28125 -1.34375,0 -2.04687,-0.5625 -0.70313,-0.5625 -0.90625,-1.65625 z"
       id="path35"
       inkscape:connector-curvature="0"
       style="fill:#000000;fill-rule:nonzero" />
    <path
       d="m 651.82416,225.35695 c 0,-6.88834 16.03314,-12.47243 35.81103,-12.47243 v 0 c 19.77784,0 35.81098,5.58409 35.81098,12.47243 v 0 c 0,6.88835 -16.03314,12.47244 -35.81098,12.47244 v 0 c -19.77789,0 -35.81103,-5.58409 -35.81103,-12.47244 z"
       id="path37"
       inkscape:connector-curvature="0"
       style="fill:#eeeeee;fill-rule:evenodd" />
    <path
       d="m 651.82416,225.35695 c 0,-6.88834 16.03314,-12.47243 35.81103,-12.47243 v 0 c 19.77784,0 35.81098,5.58409 35.81098,12.47243 v 0 c 0,6.88835 -16.03314,12.47244 -35.81098,12.47244 v 0 c -19.77789,0 -35.81103,-5.58409 -35.81103,-12.47244 z"
       id="path39"
       inkscape:connector-curvature="0"
       style="fill-rule:evenodd;stroke:#595959;stroke-width:1;stroke-linecap:butt;stroke-linejoin:round" />
    <path
       d="m 679.47144,230.15695 v -9.54688 h 6.4375 v 1.125 h -5.17187 v 2.96875 h 4.46875 v 1.125 h -4.46875 v 4.32813 z m 7.93823,-8.1875 v -1.35938 h 1.17188 v 1.35938 z m 0,8.1875 v -6.90625 h 1.17188 v 6.90625 z m 2.9455,0 v -6.90625 h 1.0625 v 0.98437 q 0.75,-1.14062 2.1875,-1.14062 0.625,0 1.15625,0.21875 0.53125,0.21875 0.78125,0.59375 0.26562,0.35937 0.375,0.85937 0.0625,0.32813 0.0625,1.14063 v 4.25 h -1.17188 v -4.20313 q 0,-0.71875 -0.14062,-1.0625 -0.14063,-0.35937 -0.48438,-0.5625 -0.34375,-0.21875 -0.8125,-0.21875 -0.75,0 -1.29687,0.46875 -0.54688,0.46875 -0.54688,1.79688 v 3.78125 z"
       id="path41"
       inkscape:connector-curvature="0"
       style="fill:#000000;fill-rule:nonzero" />
    <path
       d="m 833.4619,225.35695 v 0 c 0,-6.88834 27.47632,-12.47243 61.37012,-12.47243 v 0 c 33.89374,0 61.37005,5.58409 61.37005,12.47243 v 0 c 0,6.88835 -27.47631,12.47244 -61.37005,12.47244 v 0 c -33.8938,0 -61.37012,-5.58409 -61.37012,-12.47244 z"
       id="path43"
       inkscape:connector-curvature="0"
       style="fill:#eeeeee;fill-rule:evenodd" />
    <path
       d="m 833.4619,225.35695 v 0 c 0,-6.88834 27.47632,-12.47243 61.37012,-12.47243 v 0 c 33.89374,0 61.37005,5.58409 61.37005,12.47243 v 0 c 0,6.88835 -27.47631,12.47244 -61.37005,12.47244 v 0 c -33.8938,0 -61.37012,-5.58409 -61.37012,-12.47244 z"
       id="path45"
       inkscape:connector-curvature="0"
       style="fill-rule:evenodd;stroke:#595959;stroke-width:1;stroke-linecap:butt;stroke-linejoin:round" />
    <path
       d="m 871.9137,226.8132 1.26562,0.3125 q -0.39062,1.5625 -1.42187,2.375 -1.03125,0.8125 -2.53125,0.8125 -1.53125,0 -2.5,-0.625 -0.96875,-0.625 -1.48438,-1.8125 -0.5,-1.1875 -0.5,-2.5625 0,-1.48438 0.5625,-2.59375 0.57813,-1.10938 1.625,-1.6875 1.0625,-0.57813 2.32813,-0.57813 1.42187,0 2.39062,0.73438 0.98438,0.71875 1.375,2.04687 l -1.25,0.29688 q -0.32812,-1.04688 -0.96875,-1.51563 -0.625,-0.48437 -1.57812,-0.48437 -1.09375,0 -1.84375,0.53125 -0.73438,0.53125 -1.03125,1.42187 -0.29688,0.875 -0.29688,1.82813 0,1.21875 0.34375,2.125 0.35938,0.90625 1.10938,1.35937 0.75,0.4375 1.625,0.4375 1.0625,0 1.79687,-0.60937 0.73438,-0.60938 0.98438,-1.8125 z m 2.2345,-0.10938 q 0,-1.92187 1.07812,-2.84375 0.89063,-0.76562 2.17188,-0.76562 1.42187,0 2.32812,0.9375 0.90625,0.92187 0.90625,2.57812 0,1.32813 -0.40625,2.09375 -0.39062,0.76563 -1.15625,1.1875 -0.76562,0.42188 -1.67187,0.42188 -1.45313,0 -2.35938,-0.92188 -0.89062,-0.9375 -0.89062,-2.6875 z m 1.20312,0 q 0,1.32813 0.57813,1.98438 0.59375,0.65625 1.46875,0.65625 0.875,0 1.45312,-0.65625 0.57813,-0.67188 0.57813,-2.03125 0,-1.28125 -0.59375,-1.9375 -0.57813,-0.65625 -1.4375,-0.65625 -0.875,0 -1.46875,0.65625 -0.57813,0.65625 -0.57813,1.98437 z m 6.64685,3.45313 v -6.90625 h 1.04688 v 0.96875 q 0.32812,-0.51563 0.85937,-0.8125 0.54688,-0.3125 1.23438,-0.3125 0.78125,0 1.26562,0.3125 0.48438,0.3125 0.6875,0.89062 0.82813,-1.20312 2.14063,-1.20312 1.03125,0 1.57812,0.57812 0.5625,0.5625 0.5625,1.73438 v 4.75 h -1.17187 v -4.35938 q 0,-0.70312 -0.125,-1 -0.10938,-0.3125 -0.40625,-0.5 -0.29688,-0.1875 -0.70313,-0.1875 -0.71875,0 -1.20312,0.48438 -0.48438,0.48437 -0.48438,1.54687 v 4.01563 h -1.17187 v -4.48438 q 0,-0.78125 -0.29688,-1.17187 -0.28125,-0.39063 -0.92187,-0.39063 -0.5,0 -0.92188,0.26563 -0.42187,0.25 -0.60937,0.75 -0.1875,0.5 -0.1875,1.45312 v 3.57813 z m 11.10242,2.65625 v -9.5625 h 1.07812 v 0.89062 q 0.375,-0.53125 0.84375,-0.78125 0.48438,-0.26562 1.15625,-0.26562 0.875,0 1.54688,0.45312 0.6875,0.45313 1.03125,1.28125 0.34375,0.82813 0.34375,1.82813 0,1.04687 -0.375,1.90625 -0.375,0.84375 -1.10938,1.29687 -0.71875,0.45313 -1.53125,0.45313 -0.57812,0 -1.04687,-0.25 -0.46875,-0.25 -0.76563,-0.625 v 3.375 z m 1.0625,-6.07813 q 0,1.34375 0.53125,1.98438 0.54687,0.625 1.3125,0.625 0.78125,0 1.34375,-0.65625 0.5625,-0.65625 0.5625,-2.04688 0,-1.3125 -0.54688,-1.96875 -0.54687,-0.67187 -1.29687,-0.67187 -0.75,0 -1.32813,0.70312 -0.57812,0.70313 -0.57812,2.03125 z m 10.8656,2.5625 q -0.65625,0.5625 -1.26562,0.79688 -0.59375,0.21875 -1.28125,0.21875 -1.14063,0 -1.75,-0.54688 -0.60938,-0.5625 -0.60938,-1.4375 0,-0.5 0.21875,-0.92187 0.23438,-0.42188 0.60938,-0.67188 0.375,-0.25 0.84375,-0.39062 0.34375,-0.0781 1.04687,-0.17188 1.42188,-0.17187 2.09375,-0.40625 0,-0.23437 0,-0.29687 0,-0.71875 -0.32812,-1.01563 -0.45313,-0.39062 -1.34375,-0.39062 -0.8125,0 -1.21875,0.29687 -0.39063,0.28125 -0.57813,1.01563 l -1.14062,-0.15625 q 0.15625,-0.73438 0.51562,-1.1875 0.35938,-0.45313 1.03125,-0.6875 0.67188,-0.25 1.5625,-0.25 0.89063,0 1.4375,0.20312 0.5625,0.20313 0.8125,0.53125 0.26563,0.3125 0.375,0.79688 0.0469,0.29687 0.0469,1.07812 v 1.5625 q 0,1.625 0.0781,2.0625 0.0781,0.4375 0.29688,0.82813 h -1.21875 q -0.1875,-0.35938 -0.23438,-0.85938 z m -0.0937,-2.60937 q -0.64062,0.26562 -1.92187,0.4375 -0.71875,0.10937 -1.01563,0.25 -0.29687,0.125 -0.46875,0.375 -0.15625,0.25 -0.15625,0.54687 0,0.46875 0.34375,0.78125 0.35938,0.3125 1.04688,0.3125 0.67187,0 1.20312,-0.29687 0.53125,-0.29688 0.78125,-0.8125 0.1875,-0.39063 0.1875,-1.17188 z m 2.9906,3.46875 v -6.90625 h 1.0625 v 0.98437 q 0.75,-1.14062 2.1875,-1.14062 0.625,0 1.15625,0.21875 0.53125,0.21875 0.78125,0.59375 0.26563,0.35937 0.375,0.85937 0.0625,0.32813 0.0625,1.14063 v 4.25 h -1.17187 v -4.20313 q 0,-0.71875 -0.14063,-1.0625 -0.14062,-0.35937 -0.48437,-0.5625 -0.34375,-0.21875 -0.8125,-0.21875 -0.75,0 -1.29688,0.46875 -0.54687,0.46875 -0.54687,1.79688 v 3.78125 z m 0.82813,-7.9375 q -0.0156,-0.67188 0.375,-1.07813 0.35937,-0.40625 0.9375,-0.40625 0.40625,0 1.10937,0.35938 0.375,0.1875 0.60938,0.1875 0.20312,0 0.3125,-0.10938 0.10937,-0.10937 0.15625,-0.45312 h 0.85937 q -0.0312,0.75 -0.39062,1.125 -0.34375,0.35937 -0.89063,0.35937 -0.40625,0 -1.07812,-0.35937 -0.4375,-0.23438 -0.64063,-0.23438 -0.21875,0 -0.35937,0.15625 -0.14063,0.15625 -0.14063,0.45313 z m 6.9906,7.9375 v -6.90625 h 1.17187 v 6.90625 z m -0.0625,-7.76563 0.875,-1.82812 h 1.53125 l -1.42188,1.82812 z m 7.87487,6.90625 q -0.65625,0.5625 -1.26562,0.79688 -0.59375,0.21875 -1.28125,0.21875 -1.14063,0 -1.75,-0.54688 -0.60938,-0.5625 -0.60938,-1.4375 0,-0.5 0.21875,-0.92187 0.23438,-0.42188 0.60938,-0.67188 0.375,-0.25 0.84375,-0.39062 0.34375,-0.0781 1.04687,-0.17188 1.42188,-0.17187 2.09375,-0.40625 0,-0.23437 0,-0.29687 0,-0.71875 -0.32812,-1.01563 -0.45313,-0.39062 -1.34375,-0.39062 -0.8125,0 -1.21875,0.29687 -0.39063,0.28125 -0.57813,1.01563 l -1.14062,-0.15625 q 0.15625,-0.73438 0.51562,-1.1875 0.35938,-0.45313 1.03125,-0.6875 0.67188,-0.25 1.5625,-0.25 0.89063,0 1.4375,0.20312 0.5625,0.20313 0.8125,0.53125 0.26563,0.3125 0.375,0.79688 0.0469,0.29687 0.0469,1.07812 v 1.5625 q 0,1.625 0.0781,2.0625 0.0781,0.4375 0.29688,0.82813 h -1.21875 q -0.1875,-0.35938 -0.23438,-0.85938 z m -0.0937,-2.60937 q -0.64062,0.26562 -1.92187,0.4375 -0.71875,0.10937 -1.01563,0.25 -0.29687,0.125 -0.46875,0.375 -0.15625,0.25 -0.15625,0.54687 0,0.46875 0.34375,0.78125 0.35938,0.3125 1.04688,0.3125 0.67187,0 1.20312,-0.29687 0.53125,-0.29688 0.78125,-0.8125 0.1875,-0.39063 0.1875,-1.17188 z"
       id="path47"
       inkscape:connector-curvature="0"
       style="fill:#000000;fill-rule:nonzero" />
    <path
       d="m 547.1522,215.75066 v 0 c 0,-6.88834 19.02264,-12.47244 42.48822,-12.47244 v 0 c 23.46558,0 42.48816,5.5841 42.48816,12.47244 v 0 c 0,6.88834 -19.02258,12.47244 -42.48816,12.47244 v 0 c -23.46558,0 -42.48822,-5.5841 -42.48822,-12.47244 z"
       id="path49"
       inkscape:connector-curvature="0"
       style="fill:#eeeeee;fill-rule:evenodd" />
    <path
       d="m 547.1522,215.75066 v 0 c 0,-6.88834 19.02264,-12.47244 42.48822,-12.47244 v 0 c 23.46558,0 42.48816,5.5841 42.48816,12.47244 v 0 c 0,6.88834 -19.02258,12.47244 -42.48816,12.47244 v 0 c -23.46558,0 -42.48822,-5.5841 -42.48822,-12.47244 z"
       id="path51"
       inkscape:connector-curvature="0"
       style="fill-rule:evenodd;stroke:#595959;stroke-width:1;stroke-linecap:butt;stroke-linejoin:round" />
    <path
       d="m 575.3333,220.55066 v -9.54688 h 1.25 v 9.54688 z m 3.328,0 v -6.90625 h 1.0625 v 0.98437 q 0.75,-1.14062 2.1875,-1.14062 0.625,0 1.15625,0.21875 0.53125,0.21875 0.78125,0.59375 0.26563,0.35937 0.375,0.85937 0.0625,0.32813 0.0625,1.14063 v 4.25 h -1.17187 v -4.20313 q 0,-0.71875 -0.14063,-1.0625 -0.14062,-0.35937 -0.48437,-0.5625 -0.34375,-0.21875 -0.8125,-0.21875 -0.75,0 -1.29688,0.46875 -0.54687,0.46875 -0.54687,1.79688 v 3.78125 z m 7.4281,-8.1875 v -1.35938 h 1.17188 v 1.35938 z m 0,8.1875 v -6.90625 h 1.17188 v 6.90625 z m 7.46112,-2.53125 1.15625,0.15625 q -0.1875,1.1875 -0.96875,1.85937 -0.78125,0.67188 -1.92187,0.67188 -1.40625,0 -2.28125,-0.92188 -0.85938,-0.9375 -0.85938,-2.65625 0,-1.125 0.375,-1.96875 0.375,-0.84375 1.125,-1.25 0.76563,-0.42187 1.65625,-0.42187 1.125,0 1.84375,0.57812 0.71875,0.5625 0.92188,1.60938 l -1.14063,0.17187 q -0.17187,-0.70312 -0.59375,-1.04687 -0.40625,-0.35938 -0.98437,-0.35938 -0.89063,0 -1.45313,0.64063 -0.54687,0.64062 -0.54687,2 0,1.40625 0.53125,2.03125 0.54687,0.625 1.40625,0.625 0.6875,0 1.14062,-0.42188 0.46875,-0.42187 0.59375,-1.29687 z m 2.16407,-5.65625 v -1.35938 h 1.17187 v 1.35938 z m 0,8.1875 v -6.90625 h 1.17187 v 6.90625 z m 2.50793,-3.45313 q 0,-1.92187 1.07813,-2.84375 0.89062,-0.76562 2.17187,-0.76562 1.42188,0 2.32813,0.9375 0.90625,0.92187 0.90625,2.57812 0,1.32813 -0.40625,2.09375 -0.39063,0.76563 -1.15625,1.1875 -0.76563,0.42188 -1.67188,0.42188 -1.45312,0 -2.35937,-0.92188 -0.89063,-0.9375 -0.89063,-2.6875 z m 1.20313,0 q 0,1.32813 0.57812,1.98438 0.59375,0.65625 1.46875,0.65625 0.875,0 1.45313,-0.65625 0.57812,-0.67188 0.57812,-2.03125 0,-1.28125 -0.59375,-1.9375 -0.57812,-0.65625 -1.4375,-0.65625 -0.875,0 -1.46875,0.65625 -0.57812,0.65625 -0.57812,1.98437 z"
       id="path53"
       inkscape:connector-curvature="0"
       style="fill:#000000;fill-rule:nonzero" />
    <path
       d="M 706.1837,96.56956 562.93962,121.8294"
       id="path55"
       inkscape:connector-curvature="0"
       style="fill:#000000;fill-opacity:0;fill-rule:evenodd" />
    <path
       d="M 706.1837,96.56956 562.93962,121.8294"
       id="path57"
       inkscape:connector-curvature="0"
       style="fill-rule:evenodd;stroke:#595959;stroke-width:1;stroke-linecap:butt;stroke-linejoin:round" />
    <path
       d="m 706.1837,96.56956 -7.71655,45.70078"
       id="path59"
       inkscape:connector-curvature="0"
       style="fill:#000000;fill-opacity:0;fill-rule:evenodd" />
    <path
       d="m 706.1837,96.56956 -7.71655,45.70078"
       id="path61"
       inkscape:connector-curvature="0"
       style="fill-rule:evenodd;stroke:#595959;stroke-width:1;stroke-linecap:butt;stroke-linejoin:round" />
    <path
       d="m 706.1837,96.56956 168.18896,28.7874"
       id="path63"
       inkscape:connector-curvature="0"
       style="fill:#000000;fill-opacity:0;fill-rule:evenodd" />
    <path
       d="m 706.1837,96.56956 168.18896,28.7874"
       id="path65"
       inkscape:connector-curvature="0"
       style="fill-rule:evenodd;stroke:#595959;stroke-width:1;stroke-linecap:butt;stroke-linejoin:round" />
    <path
       d="M 874.35956,150.30183 589.63519,203.27821"
       id="path67"
       inkscape:connector-curvature="0"
       style="fill:#000000;fill-opacity:0;fill-rule:evenodd" />
    <path
       d="M 874.35956,150.30183 589.63519,203.27821"
       id="path69"
       inkscape:connector-curvature="0"
       style="fill-rule:evenodd;stroke:#595959;stroke-width:1;stroke-linecap:butt;stroke-linejoin:round" />
    <path
       d="M 874.35956,150.30183 687.65094,212.88452"
       id="path71"
       inkscape:connector-curvature="0"
       style="fill:#000000;fill-opacity:0;fill-rule:evenodd" />
    <path
       d="M 874.35956,150.30183 687.65094,212.88452"
       id="path73"
       inkscape:connector-curvature="0"
       style="fill-rule:evenodd;stroke:#595959;stroke-width:1;stroke-linecap:butt;stroke-linejoin:round" />
    <path
       d="m 874.35956,150.30183 -88.72437,71.02362"
       id="path75"
       inkscape:connector-curvature="0"
       style="fill:#000000;fill-opacity:0;fill-rule:evenodd" />
    <path
       d="m 874.35956,150.30183 -88.72437,71.02362"
       id="path77"
       inkscape:connector-curvature="0"
       style="fill-rule:evenodd;stroke:#595959;stroke-width:1;stroke-linecap:butt;stroke-linejoin:round" />
    <path
       d="m 874.35956,150.30183 20.47247,62.58269"
       id="path79"
       inkscape:connector-curvature="0"
       style="fill:#000000;fill-opacity:0;fill-rule:evenodd" />
    <path
       d="m 874.35956,150.30183 20.47247,62.58269"
       id="path81"
       inkscape:connector-curvature="0"
       style="fill-rule:evenodd;stroke:#595959;stroke-width:1;stroke-linecap:butt;stroke-linejoin:round" />
  </g>
</svg>
